<svg width="202" height="34" viewBox="0 0 202 34" fill="none" xmlns="http://www.w3.org/2000/svg">
<path d="M1.515 26.5C1.24367 26.5 1.02167 26.4137 0.849 26.241C0.676333 26.0683 0.59 25.8463 0.59 25.575V1.525C0.59 1.25367 0.676333 1.03167 0.849 0.858999C1.02167 0.686332 1.24367 0.599998 1.515 0.599998H6.288C6.55933 0.599998 6.78133 0.686332 6.954 0.858999C7.12667 1.03167 7.213 1.25367 7.213 1.525V10.442H9.47L14.946 1.303C15.0693 1.10567 15.242 0.945333 15.464 0.822C15.686 0.673999 15.9697 0.599998 16.315 0.599998H21.643C21.8897 0.599998 22.087 0.686332 22.235 0.858999C22.383 1.007 22.457 1.17967 22.457 1.377C22.457 1.525 22.4077 1.673 22.309 1.821L15.427 13.069L22.975 25.242C23.049 25.3407 23.086 25.4763 23.086 25.649C23.086 25.8957 22.9997 26.1053 22.827 26.278C22.679 26.426 22.4817 26.5 22.235 26.5H16.759C16.3643 26.5 16.0683 26.4137 15.871 26.241C15.6983 26.0683 15.5627 25.9203 15.464 25.797L9.729 16.362H7.213V25.575C7.213 25.8463 7.12667 26.0683 6.954 26.241C6.78133 26.4137 6.55933 26.5 6.288 26.5H1.515ZM27.9764 33.567C27.705 33.567 27.4707 33.4683 27.2734 33.271C27.1007 33.0983 27.0144 32.8887 27.0144 32.642V29.645C27.0144 29.3737 27.1007 29.1517 27.2734 28.979C27.4707 28.8063 27.705 28.72 27.9764 28.72H29.2344C29.703 28.72 30.0854 28.6337 30.3814 28.461C30.6774 28.2883 30.9364 28.0047 31.1584 27.61C31.405 27.24 31.664 26.722 31.9354 26.056L39.3354 8.037C39.4094 7.815 39.5327 7.63 39.7054 7.482C39.878 7.334 40.1247 7.26 40.4454 7.26H44.4044C44.6264 7.26 44.8114 7.34633 44.9594 7.519C45.132 7.667 45.2184 7.83967 45.2184 8.037C45.2184 8.08633 45.206 8.16033 45.1814 8.259C45.1814 8.333 45.1567 8.41933 45.1074 8.518L38.0774 25.464C37.584 26.6727 37.066 27.7703 36.5234 28.757C36.0054 29.7437 35.438 30.5947 34.8214 31.31C34.2047 32.05 33.477 32.605 32.6384 32.975C31.8244 33.3697 30.8747 33.567 29.7894 33.567H27.9764ZM32.3424 26.093L24.7574 8.518C24.6834 8.34533 24.6464 8.19733 24.6464 8.074C24.6957 7.852 24.7944 7.667 24.9424 7.519C25.0904 7.34633 25.2877 7.26 25.5344 7.26H29.6784C29.999 7.26 30.2334 7.34633 30.3814 7.519C30.554 7.667 30.6774 7.83967 30.7514 8.037L36.0424 21.579L32.3424 26.093ZM48.984 33.53C48.7126 33.53 48.4906 33.4437 48.318 33.271C48.1453 33.0983 48.059 32.8763 48.059 32.605V8.185C48.059 7.91367 48.1453 7.69167 48.318 7.519C48.4906 7.34633 48.7126 7.26 48.984 7.26H53.165C53.4116 7.26 53.6213 7.34633 53.794 7.519C53.9913 7.69167 54.09 7.91367 54.09 8.185V9.554C54.6573 8.78933 55.4096 8.16033 56.347 7.667C57.2843 7.149 58.4436 6.89 59.825 6.89C61.0583 6.89 62.1436 7.08733 63.081 7.482C64.0183 7.852 64.82 8.407 65.486 9.147C66.152 9.887 66.67 10.7873 67.04 11.848C67.4346 12.9087 67.6566 14.1297 67.706 15.511C67.7306 16.0043 67.743 16.4607 67.743 16.88C67.743 17.2993 67.7306 17.7557 67.706 18.249C67.6566 19.581 67.447 20.7773 67.077 21.838C66.707 22.8987 66.189 23.799 65.523 24.539C64.857 25.279 64.043 25.8587 63.081 26.278C62.1436 26.6727 61.0583 26.87 59.825 26.87C58.6163 26.87 57.5556 26.6603 56.643 26.241C55.755 25.797 55.015 25.1803 54.423 24.391V32.605C54.423 32.8763 54.3366 33.0983 54.164 33.271C53.9913 33.4437 53.7693 33.53 53.498 33.53H48.984ZM57.827 21.912C58.6656 21.912 59.3193 21.7393 59.788 21.394C60.2566 21.0487 60.5896 20.58 60.787 19.988C61.009 19.396 61.1446 18.7423 61.194 18.027C61.2433 17.2623 61.2433 16.4977 61.194 15.733C61.1446 15.0177 61.009 14.364 60.787 13.772C60.5896 13.18 60.2566 12.7113 59.788 12.366C59.3193 12.0207 58.6656 11.848 57.827 11.848C57.013 11.848 56.3593 12.033 55.866 12.403C55.3726 12.7483 55.015 13.2047 54.793 13.772C54.571 14.3393 54.4476 14.956 54.423 15.622C54.3983 16.0907 54.386 16.547 54.386 16.991C54.386 17.435 54.3983 17.9037 54.423 18.397C54.4476 19.0137 54.5833 19.5933 54.83 20.136C55.0766 20.654 55.4466 21.0857 55.94 21.431C56.4333 21.7517 57.0623 21.912 57.827 21.912ZM80.2438 26.87C78.4184 26.87 76.8028 26.537 75.3968 25.871C73.9908 25.205 72.8684 24.243 72.0298 22.985C71.2158 21.7023 70.7718 20.173 70.6978 18.397C70.6731 18.0023 70.6608 17.509 70.6608 16.917C70.6608 16.3003 70.6731 15.7947 70.6978 15.4C70.7718 13.5993 71.2158 12.07 72.0298 10.812C72.8438 9.52933 73.9538 8.555 75.3598 7.889C76.7904 7.223 78.4184 6.89 80.2438 6.89C81.9458 6.89 83.4011 7.13667 84.6098 7.63C85.8184 8.09867 86.8051 8.69067 87.5698 9.406C88.3344 10.1213 88.9018 10.8613 89.2718 11.626C89.6664 12.366 89.8761 13.0197 89.9008 13.587C89.9254 13.8337 89.8391 14.0557 89.6418 14.253C89.4444 14.4257 89.2224 14.512 88.9758 14.512H84.2768C84.0054 14.512 83.7958 14.4503 83.6478 14.327C83.4998 14.2037 83.3641 14.0187 83.2408 13.772C82.9448 13.0073 82.5624 12.4647 82.0938 12.144C81.6498 11.8233 81.0701 11.663 80.3548 11.663C79.3681 11.663 78.6034 11.9837 78.0608 12.625C77.5428 13.2663 77.2591 14.253 77.2098 15.585C77.1851 16.5717 77.1851 17.4473 77.2098 18.212C77.2591 19.5687 77.5428 20.5553 78.0608 21.172C78.6034 21.7887 79.3681 22.097 80.3548 22.097C81.1194 22.097 81.7238 21.9367 82.1678 21.616C82.6118 21.2953 82.9694 20.7527 83.2408 19.988C83.3641 19.7413 83.4998 19.5563 83.6478 19.433C83.7958 19.3097 84.0054 19.248 84.2768 19.248H88.9758C89.2224 19.248 89.4444 19.3467 89.6418 19.544C89.8391 19.7167 89.9254 19.9263 89.9008 20.173C89.8761 20.5923 89.7528 21.0857 89.5308 21.653C89.3088 22.1957 88.9634 22.7753 88.4948 23.392C88.0261 24.0087 87.4094 24.5883 86.6448 25.131C85.9048 25.649 85.0044 26.0683 83.9438 26.389C82.8831 26.7097 81.6498 26.87 80.2438 26.87ZM102.105 26.87C99.1943 26.87 96.8757 26.0807 95.149 24.502C93.4223 22.9233 92.522 20.58 92.448 17.472C92.448 17.2993 92.448 17.0773 92.448 16.806C92.448 16.5347 92.448 16.325 92.448 16.177C92.522 14.2283 92.9537 12.5633 93.743 11.182C94.557 9.776 95.667 8.71533 97.073 8C98.5037 7.26 100.169 6.89 102.068 6.89C104.239 6.89 106.027 7.32167 107.433 8.185C108.864 9.04833 109.937 10.22 110.652 11.7C111.367 13.18 111.725 14.8697 111.725 16.769V17.657C111.725 17.9283 111.626 18.1503 111.429 18.323C111.256 18.4957 111.047 18.582 110.8 18.582H98.96C98.96 18.6067 98.96 18.6437 98.96 18.693C98.96 18.7423 98.96 18.7917 98.96 18.841C98.9847 19.5563 99.108 20.21 99.33 20.802C99.552 21.394 99.8973 21.8627 100.366 22.208C100.835 22.5533 101.402 22.726 102.068 22.726C102.561 22.726 102.968 22.652 103.289 22.504C103.634 22.3313 103.918 22.1463 104.14 21.949C104.362 21.727 104.535 21.542 104.658 21.394C104.88 21.1473 105.053 20.9993 105.176 20.95C105.324 20.876 105.546 20.839 105.842 20.839H110.43C110.677 20.839 110.874 20.913 111.022 21.061C111.195 21.1843 111.269 21.3693 111.244 21.616C111.219 22.0353 111.01 22.541 110.615 23.133C110.22 23.725 109.641 24.317 108.876 24.909C108.136 25.4763 107.199 25.945 106.064 26.315C104.929 26.685 103.61 26.87 102.105 26.87ZM98.96 14.919H105.213V14.845C105.213 14.0557 105.09 13.365 104.843 12.773C104.621 12.181 104.263 11.7247 103.77 11.404C103.301 11.0833 102.734 10.923 102.068 10.923C101.402 10.923 100.835 11.0833 100.366 11.404C99.922 11.7247 99.5767 12.181 99.33 12.773C99.0833 13.365 98.96 14.0557 98.96 14.845V14.919ZM124.037 26.87C122.211 26.87 120.596 26.537 119.19 25.871C117.784 25.205 116.661 24.243 115.823 22.985C115.009 21.7023 114.565 20.173 114.491 18.397C114.466 18.0023 114.454 17.509 114.454 16.917C114.454 16.3003 114.466 15.7947 114.491 15.4C114.565 13.5993 115.009 12.07 115.823 10.812C116.637 9.52933 117.747 8.555 119.153 7.889C120.583 7.223 122.211 6.89 124.037 6.89C125.739 6.89 127.194 7.13667 128.403 7.63C129.611 8.09867 130.598 8.69067 131.363 9.406C132.127 10.1213 132.695 10.8613 133.065 11.626C133.459 12.366 133.669 13.0197 133.694 13.587C133.718 13.8337 133.632 14.0557 133.435 14.253C133.237 14.4257 133.015 14.512 132.769 14.512H128.07C127.798 14.512 127.589 14.4503 127.441 14.327C127.293 14.2037 127.157 14.0187 127.034 13.772C126.738 13.0073 126.355 12.4647 125.887 12.144C125.443 11.8233 124.863 11.663 124.148 11.663C123.161 11.663 122.396 11.9837 121.854 12.625C121.336 13.2663 121.052 14.253 121.003 15.585C120.978 16.5717 120.978 17.4473 121.003 18.212C121.052 19.5687 121.336 20.5553 121.854 21.172C122.396 21.7887 123.161 22.097 124.148 22.097C124.912 22.097 125.517 21.9367 125.961 21.616C126.405 21.2953 126.762 20.7527 127.034 19.988C127.157 19.7413 127.293 19.5563 127.441 19.433C127.589 19.3097 127.798 19.248 128.07 19.248H132.769C133.015 19.248 133.237 19.3467 133.435 19.544C133.632 19.7167 133.718 19.9263 133.694 20.173C133.669 20.5923 133.546 21.0857 133.324 21.653C133.102 22.1957 132.756 22.7753 132.288 23.392C131.819 24.0087 131.202 24.5883 130.438 25.131C129.698 25.649 128.797 26.0683 127.737 26.389C126.676 26.7097 125.443 26.87 124.037 26.87Z" fill="#0018ED"/>
<path d="M144.048 26.5C143.777 26.5 143.555 26.4137 143.382 26.241C143.209 26.0683 143.123 25.8463 143.123 25.575V6.409H136.537C136.266 6.409 136.044 6.32267 135.871 6.15C135.698 5.95267 135.612 5.73067 135.612 5.484V1.525C135.612 1.25367 135.698 1.03167 135.871 0.858999C136.044 0.686332 136.266 0.599998 136.537 0.599998H156.443C156.714 0.599998 156.936 0.686332 157.109 0.858999C157.282 1.03167 157.368 1.25367 157.368 1.525V5.484C157.368 5.73067 157.282 5.95267 157.109 6.15C156.936 6.32267 156.714 6.409 156.443 6.409H149.857V25.575C149.857 25.8463 149.771 26.0683 149.598 26.241C149.425 26.4137 149.203 26.5 148.932 26.5H144.048ZM169.426 26.87C167.354 26.87 165.602 26.537 164.172 25.871C162.766 25.205 161.68 24.2553 160.916 23.022C160.176 21.764 159.756 20.2717 159.658 18.545C159.633 18.0517 159.621 17.4967 159.621 16.88C159.621 16.2387 159.633 15.6837 159.658 15.215C159.756 13.4637 160.2 11.9713 160.99 10.738C161.779 9.50467 162.877 8.555 164.283 7.889C165.713 7.223 167.428 6.89 169.426 6.89C171.448 6.89 173.163 7.223 174.569 7.889C175.999 8.555 177.109 9.50467 177.899 10.738C178.688 11.9713 179.132 13.4637 179.231 15.215C179.255 15.6837 179.268 16.2387 179.268 16.88C179.268 17.4967 179.255 18.0517 179.231 18.545C179.132 20.2717 178.7 21.764 177.936 23.022C177.196 24.2553 176.11 25.205 174.68 25.871C173.274 26.537 171.522 26.87 169.426 26.87ZM169.426 22.356C170.536 22.356 171.337 22.023 171.831 21.357C172.349 20.691 172.645 19.692 172.719 18.36C172.743 17.99 172.756 17.4967 172.756 16.88C172.756 16.2633 172.743 15.77 172.719 15.4C172.645 14.0927 172.349 13.106 171.831 12.44C171.337 11.7493 170.536 11.404 169.426 11.404C168.34 11.404 167.539 11.7493 167.021 12.44C166.503 13.106 166.219 14.0927 166.17 15.4C166.145 15.77 166.133 16.2633 166.133 16.88C166.133 17.4967 166.145 17.99 166.17 18.36C166.219 19.692 166.503 20.691 167.021 21.357C167.539 22.023 168.34 22.356 169.426 22.356ZM183.832 26.5C183.56 26.5 183.338 26.4137 183.166 26.241C182.993 26.0683 182.907 25.8463 182.907 25.575V8.185C182.907 7.91367 182.993 7.69167 183.166 7.519C183.338 7.34633 183.56 7.26 183.832 7.26H200.778C201.049 7.26 201.271 7.34633 201.444 7.519C201.616 7.69167 201.703 7.91367 201.703 8.185V25.575C201.703 25.8463 201.616 26.0683 201.444 26.241C201.271 26.4137 201.049 26.5 200.778 26.5H196.412C196.165 26.5 195.943 26.4137 195.746 26.241C195.573 26.0683 195.487 25.8463 195.487 25.575V12.107H189.123V25.575C189.123 25.8463 189.024 26.0683 188.827 26.241C188.654 26.4137 188.444 26.5 188.198 26.5H183.832Z" fill="#2D2E3A"/>
</svg>
